<?xml version="1.0" encoding="iso-8859-1"?>
<!-- Generator: Adobe Illustrator 22.1.0, SVG Export Plug-In . SVG Version: 6.00 Build 0)  -->
<svg xmlns="http://www.w3.org/2000/svg" xmlns:xlink="http://www.w3.org/1999/xlink" version="1.1" id="Layer_3" x="0px" y="0px" viewBox="0 0 64 64" style="enable-background:new 0 0 64 64;" xml:space="preserve" width="512" height="512">
<g>
	<path d="M43,5H21c-0.553,0-1,0.447-1,1v22c0,0.553,0.447,1,1,1h22c0.553,0,1-0.447,1-1V6C44,5.447,43.553,5,43,5z M42,27H22V7h20   V27z"/>
	<path d="M29,17h4c2.206,0,4-1.794,4-4s-1.794-4-4-4h-5c-0.553,0-1,0.447-1,1v15h2V17z M29,11h4c1.103,0,2,0.897,2,2s-0.897,2-2,2   h-4V11z"/>
	<path d="M53.305,61C53.735,60.409,54,59.732,54,59c0-2.206-2.243-4-5-4c-1.125,0-2.154,0.31-2.99,0.814   C45.15,55.297,44.096,55,43,55c-2.757,0-5,1.794-5,4c0,0.732,0.265,1.409,0.695,2H36V47c0-1.859-1.279-3.411-3-3.858V33h14   c0.553,0,1-0.447,1-1V2c0-0.553-0.447-1-1-1H17c-0.553,0-1,0.447-1,1v30c0,0.553,0.447,1,1,1h14v10.142   c-1.721,0.447-3,1.999-3,3.858v14H16.305C16.735,60.409,17,59.732,17,59c0-2.206-2.243-4-5-4c-1.125,0-2.154,0.31-2.99,0.814   C8.15,55.297,7.096,55,6,55c-2.757,0-5,1.794-5,4c0,0.732,0.265,1.409,0.695,2H1v2h28h6h28v-2H53.305z M18,3h28v28H18V3z M52,59   c0,1.084-1.374,2-3,2s-3-0.916-3-2s1.374-2,3-2S52,57.916,52,59z M40,59c0-1.084,1.374-2,3-2c0.537,0,1.046,0.108,1.499,0.289   C44.188,57.809,44,58.385,44,59c0,0.615,0.188,1.19,0.499,1.711C44.045,60.892,43.536,61,43,61C41.374,61,40,60.084,40,59z M15,59   c0,1.084-1.374,2-3,2s-3-0.916-3-2s1.374-2,3-2S15,57.916,15,59z M3,59c0-1.084,1.374-2,3-2c0.537,0,1.046,0.108,1.499,0.289   C7.188,57.809,7,58.385,7,59c0,0.615,0.188,1.19,0.499,1.711C7.045,60.892,6.536,61,6,61C4.374,61,3,60.084,3,59z M30,61V47   c0-1.103,0.897-2,2-2s2,0.897,2,2v14H30z"/>
</g>
</svg>
